<svg height="512" viewBox="0 0 64 64" width="512" xmlns="http://www.w3.org/2000/svg"><g id="smartphone"><path d="m41 52v6c0 1.66-3.03 3-8 3s-8-1.34-8-3v-6c0 1.66 3.03 3 8 3s8-1.34 8-3z" fill="#ffde55"/><path d="m41 46v6c0 1.66-3.03 3-8 3s-8-1.34-8-3v-6c0 1.66 3.03 3 8 3s8-1.34 8-3z" fill="#ffde55"/><path d="m41 40v6c0 1.66-3.03 3-8 3s-8-1.34-8-3v-6c0 1.66 3.03 3 8 3s8-1.34 8-3z" fill="#ffde55"/><ellipse cx="33" cy="40" fill="#ffcd00" rx="8" ry="3"/><path d="m41 40v6c0 1.66-3.03 3-8 3-.71 0-1.38-.03-2-.08 3.77-.31 6-1.5 6-2.92v-3.35c2.55-.51 4-1.5 4-2.65z" fill="#ffcd00"/><path d="m41 46v6c0 1.66-3.03 3-8 3-.71 0-1.38-.03-2-.08 3.77-.31 6-1.5 6-2.92v-3.35c2.55-.51 4-1.5 4-2.65z" fill="#ffcd00"/><path d="m41 52v6c0 1.66-3.03 3-8 3-.71 0-1.38-.03-2-.08 3.77-.31 6-1.5 6-2.92v-3.35c2.55-.51 4-1.5 4-2.65z" fill="#ffcd00"/><path d="m41 40c0 1.66-3.03 3-8 3-.71 0-1.38-.03-2-.08 3.77-.31 6-1.5 6-2.92s-2.23-2.61-6-2.92c.62-.05 1.29-.08 2-.08 4.97 0 8 1.34 8 3z" fill="#ddb200"/><rect fill="#57a4ff" height="8" rx="2" width="28" x="33" y="15"/><rect fill="#57a4ff" height="8" rx="2" width="28" x="33" y="3"/><path d="m61 17v4a2.006 2.006 0 0 1 -2 2h-4a2.006 2.006 0 0 0 2-2v-4a2.006 2.006 0 0 0 -2-2h4a2.006 2.006 0 0 1 2 2z" fill="#006df0"/><path d="m61 5v4a2.006 2.006 0 0 1 -2 2h-4a2.006 2.006 0 0 0 2-2v-4a2.006 2.006 0 0 0 -2-2h4a2.006 2.006 0 0 1 2 2z" fill="#006df0"/><path d="m27 9a2.006 2.006 0 0 1 2 2v42a2 2 0 0 1 -2 2h-22a2.006 2.006 0 0 1 -2-2v-42a2.006 2.006 0 0 1 2-2z" fill="#00d7df"/><path d="m29 11v42a2 2 0 0 1 -2 2h-5a2 2 0 0 0 2-2v-42a2.006 2.006 0 0 0 -2-2h5a2.006 2.006 0 0 1 2 2z" fill="#009698"/><path d="m25 29v4a2.006 2.006 0 0 1 -2 2h-14a2.006 2.006 0 0 1 -2-2v-4z" fill="#57a4ff"/><path d="m7 23h18v6h-18z" fill="#57a4ff"/><path d="m25 19v4h-18v-4a2.006 2.006 0 0 1 2-2h14a2.006 2.006 0 0 1 2 2z" fill="#57a4ff"/><g fill="#ffde55"><path d="m24 9v2a2.006 2.006 0 0 1 -2 2h-12a2.006 2.006 0 0 1 -2-2v-2z"/><path d="m61 52v6c0 1.66-3.03 3-8 3s-8-1.34-8-3v-6c0 1.66 3.03 3 8 3s8-1.34 8-3z"/><path d="m61 46v6c0 1.66-3.03 3-8 3s-8-1.34-8-3v-6c0 1.66 3.03 3 8 3s8-1.34 8-3z"/><path d="m61 40v6c0 1.66-3.03 3-8 3s-8-1.34-8-3v-6c0 1.66 3.03 3 8 3s8-1.34 8-3z"/></g><ellipse cx="53" cy="40" fill="#ffcd00" rx="8" ry="3"/><path d="m61 40v6c0 1.66-3.03 3-8 3-.71 0-1.38-.03-2-.08 3.77-.31 6-1.5 6-2.92v-3.35c2.55-.51 4-1.5 4-2.65z" fill="#ffcd00"/><path d="m61 46v6c0 1.66-3.03 3-8 3-.71 0-1.38-.03-2-.08 3.77-.31 6-1.5 6-2.92v-3.35c2.55-.51 4-1.5 4-2.65z" fill="#ffcd00"/><path d="m61 52v6c0 1.66-3.03 3-8 3-.71 0-1.38-.03-2-.08 3.77-.31 6-1.5 6-2.92v-3.35c2.55-.51 4-1.5 4-2.65z" fill="#ffcd00"/><path d="m61 40c0 1.66-3.03 3-8 3-.71 0-1.38-.03-2-.08 3.77-.31 6-1.5 6-2.92s-2.23-2.61-6-2.92c.62-.05 1.29-.08 2-.08 4.97 0 8 1.34 8 3z" fill="#ddb200"/><path d="m25 29v4a2.006 2.006 0 0 1 -2 2h-4a2.006 2.006 0 0 0 2-2v-4z" fill="#006df0"/><path d="m21 23h4v6h-4z" fill="#006df0"/><path d="m25 19v4h-4v-4a2.006 2.006 0 0 0 -2-2h4a2.006 2.006 0 0 1 2 2z" fill="#006df0"/><path d="m32 45h2v2h-2z"/><path d="m32 51h2v2h-2z"/><path d="m32 57h2v2h-2z"/><path d="m52 45h2v2h-2z"/><path d="m52 51h2v2h-2z"/><path d="m52 57h2v2h-2z"/><path d="m10 25h2v2h-2z"/><path d="m10 19h2v2h-2z"/><path d="m10 31h2v2h-2z"/><path d="m24 50h2v2h-2z"/><path d="m9 47h2v2h-2z"/><path d="m36 18h2v2h-2z"/><path d="m40 18h2v2h-2z"/><path d="m44 18h2v2h-2z"/><path d="m62 9v-4a3.009 3.009 0 0 0 -3-3h-24a3.009 3.009 0 0 0 -3 3v4a3.009 3.009 0 0 0 3 3v2a3.009 3.009 0 0 0 -3 3v4a3.009 3.009 0 0 0 3 3h5v6a1 1 0 0 1 -1 1h-4a3.009 3.009 0 0 0 -3 3v2.02c-.7.03-1.36.08-2 .16v-25.18a3.009 3.009 0 0 0 -3-3h-22a3.009 3.009 0 0 0 -3 3v42a3.009 3.009 0 0 0 3 3h19v2c0 2.43 3.53 4 9 4s9-1.57 9-4v-18c0-2.28-3.11-3.8-8-3.98v-2.02a1 1 0 0 1 1-1h4a3.009 3.009 0 0 0 3-3v-6h2v6a3.009 3.009 0 0 0 3 3h4a1 1 0 0 1 1 1v2.02c-4.89.18-8 1.7-8 3.98v18c0 2.43 3.53 4 9 4s9-1.57 9-4v-18c0-2.28-3.11-3.8-8-3.98v-2.02a3.009 3.009 0 0 0 -3-3h-4a1 1 0 0 1 -1-1v-6h13a3.009 3.009 0 0 0 3-3v-4a3.009 3.009 0 0 0 -3-3v-2a3.009 3.009 0 0 0 3-3zm-53 1h14v1a1 1 0 0 1 -1 1h-12a1 1 0 0 1 -1-1zm-4 44a1 1 0 0 1 -1-1v-42a1 1 0 0 1 1-1h2v1a3.009 3.009 0 0 0 3 3h12a3.009 3.009 0 0 0 3-3v-1h2a1 1 0 0 1 1 1v42a.981.981 0 0 1 -.34.75.961.961 0 0 1 -.66.25zm35 4c0 .68-2.11 2-7 2s-7-1.32-7-2v-2h1a2.99 2.99 0 0 0 1.55-.43 21.465 21.465 0 0 0 4.45.43 15.576 15.576 0 0 0 7-1.31zm0-6c0 .68-2.11 2-7 2a21.609 21.609 0 0 1 -3.12-.22 2.888 2.888 0 0 0 .12-.78v-3.18a23.718 23.718 0 0 0 3 .18 15.576 15.576 0 0 0 7-1.31zm0-6c0 .68-2.11 2-7 2a21.449 21.449 0 0 1 -3-.22v-3.96a23.718 23.718 0 0 0 3 .18 15.576 15.576 0 0 0 7-1.31zm0-6c0 .68-2.11 2-7 2a21.449 21.449 0 0 1 -3-.22v-3.56a21.449 21.449 0 0 1 3-.22c4.89 0 7 1.32 7 2zm20 18c0 .68-2.11 2-7 2s-7-1.32-7-2v-3.31a15.576 15.576 0 0 0 7 1.31 15.576 15.576 0 0 0 7-1.31zm0-6c0 .68-2.11 2-7 2s-7-1.32-7-2v-3.31a15.576 15.576 0 0 0 7 1.31 15.576 15.576 0 0 0 7-1.31zm0-6c0 .68-2.11 2-7 2s-7-1.32-7-2v-3.31a15.576 15.576 0 0 0 7 1.31 15.576 15.576 0 0 0 7-1.31zm0-6c0 .68-2.11 2-7 2s-7-1.32-7-2 2.11-2 7-2 7 1.32 7 2zm0-23v4a1 1 0 0 1 -1 1h-24a1 1 0 0 1 -1-1v-4a1 1 0 0 1 1-1h24a1 1 0 0 1 1 1zm-23-3v-2h2v2zm4 0v-2h12v2zm14 0v-2h2v2zm-20-4a1 1 0 0 1 -1-1v-4a1 1 0 0 1 1-1h24a1 1 0 0 1 1 1v4a1 1 0 0 1 -1 1z"/><path d="m23 16h-14a3.009 3.009 0 0 0 -3 3v14a3.009 3.009 0 0 0 3 3v9h2v-9h2v13a3.009 3.009 0 0 0 3 3h6v-2h-6a1 1 0 0 1 -1-1v-13h8a3.009 3.009 0 0 0 3-3v-14a3.009 3.009 0 0 0 -3-3zm1 17a1 1 0 0 1 -1 1h-14a1 1 0 0 1 -1-1v-3h16zm0-5h-16v-4h16zm0-6h-16v-3a1 1 0 0 1 1-1h14a1 1 0 0 1 1 1z"/><path d="m36 6h2v2h-2z"/><path d="m40 6h2v2h-2z"/><path d="m44 6h2v2h-2z"/></g></svg>