<svg id="Layer_1" enable-background="new 0 0 64 64" height="512" viewBox="0 0 64 64" width="512" xmlns="http://www.w3.org/2000/svg"><path d="m57 45.8v-27.6c0-.7-.4-1.4-1-1.7l-23-13c-.6-.3-1.3-.3-2 0l-23 12.9c-.6.4-1 1-1 1.7v27.7c0 .7.4 1.4 1 1.7l23 12.9c.6.3 1.3.3 2 0l23-12.9c.6-.3 1-.9 1-1.7z" fill="#0888ba"/><path d="m31 30.5c.6.3 1.3.3 2 0l23.7-13.3c-.2-.3-.4-.6-.7-.7l-23-12.9c-.6-.3-1.3-.3-2 0l-23 12.8c-.3.2-.6.4-.7.7z" fill="#06688f"/><path d="m17 34v-16.4c0-.3.2-.7.5-.8l7.1-4.4c.3-.2.7-.2 1 0l1 .5c.3.1.6.1.9 0l10.5-5.9v15z" fill="#44d381"/><path d="m24 39v-17.4c0-.3.2-.7.5-.8l7.1-4.4c.3-.2.7-.2 1 0l1 .5c.3.1.6.1.9 0l10.5-5.9v17z" fill="#06c15a"/><path d="m40.5 20.7c-.3.2-.7.2-1 .1l-1-.5c-.3-.2-.7-.1-1 0l-7.1 4.4c-.3.2-.5.5-.5.8v11.5l21-12v-11z" fill="#087f5d"/><path d="m31 30.5-23.7-13.3c-.2.3-.3.6-.3 1v27.7c0 .7.4 1.4 1 1.7l23 12.9c.3.2.6.3 1 .3v-30c-.4-.1-.7-.2-1-.3z" fill="#0888ba"/><g fill="#06688f"><path d="m12.3 24.5-5.3-2.4v2.2l4.4 2c.3.2.6.5.6.9v3.8h2v-3.8c0-1.1-.7-2.2-1.7-2.7z"/><path d="m32 42.8-9.5-5.1c-.3-.2-.5-.5-.5-.9v-4.8h-2v4.8c0 1.1.6 2.1 1.6 2.6l10.4 5.7z"/><path d="m32 54.7-9.5-5c-.3-.2-.5-.5-.5-.9v-3.7c0-1.1-.6-2-1.5-2.6l-6-3.4-1 1.7 6 3.4c.3.2.5.5.5.9v3.7c0 1.1.6 2.1 1.6 2.6l10.4 5.5z"/></g><circle cx="14" cy="40" fill="#f9e310" r="2"/><circle cx="21" cy="32" fill="#f9e310" r="2"/><circle cx="13" cy="31" fill="#f9e310" r="2"/><path d="m33 30.5 23.7-13.3c.2.3.3.6.3 1v27.7c0 .7-.4 1.4-1 1.7l-23 12.9c-.3.2-.6.3-1 .3v-30c.3-.1.7-.2 1-.3z" fill="#0778a6"/><path d="m36.8 34.5-4.8 2.4v2.2l5.7-2.8z" fill="#06688f"/><path d="m50.6 33.1-6.9 3.4c-1 .5-1.7 1.5-1.7 2.7v3.6c0 .4-.2.7-.5.9l-9.5 5.1v2.3l10.4-5.6c1-.5 1.6-1.5 1.6-2.6v-3.6c0-.4.2-.7.6-.9l6.9-3.4z" fill="#06688f"/><path d="m57 37.9-8.4 4.2.8 1.8 7.6-3.8z" fill="#06688f"/><circle cx="51" cy="34" fill="#f9e310" r="2"/><circle cx="49" cy="43" fill="#f9e310" r="2"/><circle cx="38" cy="35" fill="#f9e310" r="2"/><path d="m56.5 15.6-23-12.9c-.9-.5-2-.5-2.9 0l-23 12.9c-1 .5-1.6 1.5-1.6 2.6v27.7c0 1.1.6 2.1 1.5 2.6l23 12.9c.9.5 2 .5 2.9 0l23-12.9c.9-.5 1.5-1.5 1.5-2.6v-27.7c.1-1.1-.5-2.1-1.4-2.6zm-3.5.3 2 1.1-2 1.1zm-6-3.4 2.4 1.3-2.4 1.6zm-8-4.4 4.6 2.6-4.6 2.4zm6 4v4.5l-5.1 3.2-1-.5c-.6-.3-1.4-.3-2 .1l-7.1 4.4c-.6.4-.9 1-.9 1.7v2.6l-4-2.2v-4.4l7.1-4.4 1 .5c.6.3 1.3.3 1.9 0zm-8 2.1-3 1.6-1-.5c-.6-.3-1.4-.3-2 .1l-7.1 4.4c-.6.4-.9 1-.9 1.7v3.3l-5-2.8v-4.5l7.1-4.4 1 .5c.6.3 1.3.3 1.9 0l9-4.9zm-5.5-9.8c.3-.2.7-.2 1 0l4 2.3-9.5 5.2-1-.5c-.6-.3-1.4-.3-2 .1l-7.1 4.4c-.6.4-.9 1-.9 1.7v3.3l-7-3.9zm-.5 37.9-8.5-4.6c-.3-.2-.5-.5-.5-.9v-2c1.6-.6 2.4-2.3 1.8-3.8s-2.3-2.4-3.8-1.8c-1.6.6-2.4 2.3-1.8 3.8.3.9 1 1.5 1.8 1.8v2c0 1.1.6 2.1 1.6 2.6l9.4 5.1v9.7l-8.5-4.6c-.3-.2-.5-.5-.5-.9v-3.7c0-1.1-.6-2-1.5-2.6l-3.5-2c0-.1 0-.3 0-.4 0-1.7-1.3-3-3-3s-3 1.3-3 3 1.3 3 3 3c.8 0 1.5-.3 2.1-.8l3.5 2.1c.3.2.5.5.5.9v3.7c0 1.1.6 2.1 1.6 2.6l9.4 5.1v2.7l-22.6-12.6c-.3-.2-.5-.5-.5-.9v-21.2l3.4 1.7c.3.2.6.5.6.9v.9c-1.6.6-2.4 2.3-1.8 3.8.6 1.6 2.3 2.4 3.8 1.8s2.4-2.3 1.8-3.8c-.3-.9-1-1.5-1.8-1.8v-.9c0-1.1-.6-2.2-1.7-2.7l-4.3-2.1v-3.7l22.5 12.6c.1.1.3.1.5.2zm-10-9.3c-.6 0-1-.4-1-1s.4-1 1-1 1 .4 1 1-.4 1-1 1zm-6 7c0 .6-.4 1-1 1s-1-.4-1-1 .4-1 1-1 1 .4 1 1zm-2-10c.6 0 1 .4 1 1s-.4 1-1 1-1-.4-1-1 .4-1 1-1zm18.5-.4-.5-.3v-3.7l7.1-4.4 1 .5c.6.3 1.4.3 2-.1l10-6.4v4l-18.6 10.4c-.3.1-.7.1-1 0zm24.5 8.8-4.9 2.5c-1.2-1.1-3.1-1.1-4.2.1s-1.1 3.1.1 4.2 3.1 1.1 4.2-.1c.5-.6.8-1.3.8-2.1 0-.1 0-.2 0-.4l4-2v5.2c0 .4-.2.7-.5.9l-22.5 12.6v-8.7l9.4-5.1c1-.5 1.6-1.5 1.6-2.6v-3.6c0-.4.2-.7.6-.9l4.4-2.2c1.2 1.1 3.1 1.1 4.2-.1s1.1-3.1-.1-4.2-3.1-1.1-4.2.1c-.6.5-.9 1.2-.9 2v.4l-4.4 2.2c-1 .5-1.7 1.5-1.7 2.7v3.6c0 .4-.2.7-.5.9l-8.4 4.5v-9.7l2.9-1.5c1.2 1.1 3.1 1.1 4.2-.1s1.1-3.1-.1-4.2-3.1-1.1-4.2.1c-.5.6-.8 1.3-.8 2.1v.4l-2 1v-4.9c.2 0 .3-.1.5-.2l22.5-12.6zm-6 4.6c0 .6-.4 1-1 1s-1-.4-1-1 .4-1 1-1 1 .4 1 1zm0-9c0-.6.4-1 1-1s1 .4 1 1-.4 1-1 1-1-.4-1-1zm-13 1c0-.6.4-1 1-1s1 .4 1 1-.4 1-1 1-1-.4-1-1z"/></svg>