<svg width="349" height="336" viewBox="0 0 349 336" fill="none" xmlns="http://www.w3.org/2000/svg">
<path d="M133.783 112H122.15V123.2H133.783V112Z" fill="#FF5E14"/>
<path d="M133.783 134.4H122.15V145.6H133.783V134.4Z" fill="#FF5E14"/>
<path d="M133.783 156.8H122.15V168H133.783V156.8Z" fill="#FF5E14"/>
<path d="M133.783 179.2H122.15V190.4H133.783V179.2Z" fill="#FF5E14"/>
<path d="M157.05 112H145.417V123.2H157.05V112Z" fill="#FF5E14"/>
<path d="M157.05 134.4H145.417V145.6H157.05V134.4Z" fill="#FF5E14"/>
<path d="M157.05 156.8H145.417V168H157.05V156.8Z" fill="#FF5E14"/>
<path d="M157.05 179.2H145.417V190.4H157.05V179.2Z" fill="#FF5E14"/>
<path d="M180.317 112H168.683V123.2H180.317V112Z" fill="#FF5E14"/>
<path d="M180.317 134.4H168.683V145.6H180.317V134.4Z" fill="#FF5E14"/>
<path d="M180.317 156.8H168.683V168H180.317V156.8Z" fill="#FF5E14"/>
<path d="M180.317 179.2H168.683V190.4H180.317V179.2Z" fill="#FF5E14"/>
<path d="M203.583 112H191.95V123.2H203.583V112Z" fill="#FF5E14"/>
<path d="M157.05 89.6H145.417V100.8H157.05V89.6Z" fill="#FF5E14"/>
<path d="M180.317 89.6H168.683V100.8H180.317V89.6Z" fill="#FF5E14"/>
<path d="M203.583 89.6H191.95V100.8H203.583V89.6Z" fill="#FF5E14"/>
<path d="M203.583 134.4H191.95V145.6H203.583V134.4Z" fill="#FF5E14"/>
<path d="M203.583 156.8H191.95V168H203.583V156.8Z" fill="#FF5E14"/>
<path d="M203.583 179.2H191.95V190.4H203.583V179.2Z" fill="#FF5E14"/>
<path d="M226.85 112H215.217V123.2H226.85V112Z" fill="#FF5E14"/>
<path d="M226.85 134.4H215.217V145.6H226.85V134.4Z" fill="#FF5E14"/>
<path d="M226.85 156.8H215.217V168H226.85V156.8Z" fill="#FF5E14"/>
<path d="M226.85 179.2H215.217V190.4H226.85V179.2Z" fill="#FF5E14"/>
<path d="M343.19 84C343.188 84 343.186 84 343.183 84H255.933V5.6C255.936 2.5088 253.334 0.00209941 250.123 -5.87744e-07C250.121 -5.87744e-07 250.119 -5.87744e-07 250.117 -5.87744e-07H98.8833C95.6725 -0.00210059 93.0688 2.5025 93.0667 5.5937C93.0667 5.5958 93.0667 5.5979 93.0667 5.6V84H5.81667C2.60587 83.9979 0.00218071 86.5025 -5.36688e-07 89.5937C-5.36688e-07 89.5958 -5.36688e-07 89.5979 -5.36688e-07 89.6V291.2C-0.00218179 294.291 2.59932 296.798 5.81012 296.8C5.8123 296.8 5.81448 296.8 5.81667 296.8H17.9757C17.6383 298.649 17.4624 300.523 17.45 302.4V330.4C17.4478 333.491 20.0493 335.998 23.2601 336C23.2623 336 23.2645 336 23.2667 336H325.733C328.944 336.002 331.548 333.497 331.55 330.406C331.55 330.404 331.55 330.402 331.55 330.4V302.4C331.538 300.523 331.362 298.649 331.024 296.8H343.183C346.394 296.802 348.998 294.297 349 291.206C349 291.204 349 291.202 349 291.2V89.6C349.002 86.5088 346.401 84.0021 343.19 84ZM250.117 240.8C250.117 246.986 244.909 252 238.483 252C232.058 252 226.85 246.986 226.85 240.8C226.85 234.614 232.058 229.6 238.483 229.6C244.905 229.608 250.109 234.618 250.117 240.8ZM110.517 229.6C116.942 229.6 122.15 234.614 122.15 240.8C122.15 246.986 116.942 252 110.517 252C104.091 252 98.8833 246.986 98.8833 240.8C98.8913 234.618 104.095 229.608 110.517 229.6ZM75.6167 324.8H29.0833V302.4C29.0833 290.029 39.5003 280 52.35 280C65.1997 280 75.6167 290.029 75.6167 302.4V324.8ZM40.7167 257.6C40.7167 251.414 45.9248 246.4 52.35 246.4C58.7752 246.4 63.9833 251.414 63.9833 257.6C63.9833 263.786 58.7752 268.8 52.35 268.8C45.9284 268.792 40.7247 263.782 40.7167 257.6ZM76.4979 278.197C74.3043 276.16 71.8446 274.408 69.1805 272.983C78.0524 264.034 77.7099 249.855 68.4149 241.313C59.1199 232.771 44.3921 233.101 35.5195 242.05C26.9377 250.706 26.9377 264.327 35.5195 272.983C29.9675 275.949 25.3548 280.309 22.1717 285.599H11.6333V95.2H93.0667V226.139C85.0789 234.768 85.3487 247.866 93.6861 256.183C84.9611 260.829 78.7089 268.837 76.4979 278.197ZM133.783 324.8H87.25V285.6C87.25 273.229 97.6669 263.2 110.517 263.2C123.366 263.2 133.783 273.229 133.783 285.6V324.8ZM203.583 324.8H145.417V285.6C145.417 270.136 158.438 257.6 174.5 257.6C190.562 257.6 203.583 270.136 203.583 285.6V324.8ZM157.05 229.6C157.05 220.322 164.863 212.8 174.5 212.8C184.137 212.8 191.95 220.322 191.95 229.6C191.95 238.878 184.137 246.4 174.5 246.4C164.867 246.39 157.06 238.874 157.05 229.6ZM209.925 266.346C206.03 259.736 200.235 254.349 193.236 250.834C205.522 240.872 207.092 223.208 196.745 211.38C186.397 199.552 168.049 198.04 155.764 208.001C143.478 217.964 141.908 235.628 152.255 247.456C153.322 248.676 154.496 249.806 155.764 250.834C148.765 254.349 142.97 259.736 139.075 266.346C136.017 262.146 132.006 258.671 127.347 256.183C136.265 247.4 136.099 233.32 126.976 224.734C121.102 219.206 112.62 217.097 104.7 219.195V11.2H244.3V219.195C242.404 218.692 240.449 218.424 238.483 218.4C225.668 218.367 215.251 228.343 215.217 240.682C215.201 246.455 217.508 252.011 221.653 256.183C216.994 258.671 212.983 262.146 209.925 266.346ZM261.75 302.4V324.8H215.217V285.6C215.217 273.229 225.634 263.2 238.483 263.2C251.333 263.2 261.75 273.229 261.75 285.6V302.4ZM319.917 324.8H273.383V302.4C273.383 290.029 283.8 280 296.65 280C309.5 280 319.917 290.029 319.917 302.4V324.8ZM285.017 257.6C285.017 251.414 290.225 246.4 296.65 246.4C303.075 246.4 308.283 251.414 308.283 257.6C308.283 263.786 303.075 268.8 296.65 268.8C290.228 268.792 285.025 263.782 285.017 257.6ZM337.367 285.6H326.828C323.645 280.31 319.033 275.95 313.481 272.983C322.352 264.034 322.01 249.855 312.715 241.313C303.42 232.772 288.692 233.101 279.819 242.05C271.238 250.706 271.238 264.327 279.819 272.983C277.155 274.407 274.695 276.16 272.502 278.197C270.292 268.836 264.039 260.828 255.314 256.182C263.651 247.866 263.922 234.767 255.934 226.138V95.2H337.367V285.6H337.367Z" fill="#FF5E14"/>
<path d="M285.017 128.8H273.383V218.4H285.017V128.8Z" fill="#FF5E14"/>
<path d="M319.917 128.8H308.283V218.4H319.917V128.8Z" fill="#FF5E14"/>
<path d="M40.7167 128.8H29.0833V218.4H40.7167V128.8Z" fill="#FF5E14"/>
<path d="M75.6167 128.8H63.9833V218.4H75.6167V128.8Z" fill="#FF5E14"/>
<path d="M209.407 22.4C209.404 22.4 209.402 22.4 209.4 22.4H139.6C136.389 22.3979 133.786 24.9025 133.783 27.9937C133.783 27.9958 133.783 27.9979 133.783 28V72.8C133.781 75.8912 136.383 78.3979 139.593 78.4C139.596 78.4 139.598 78.4 139.6 78.4H209.4C212.611 78.4021 215.214 75.8975 215.217 72.8063C215.217 72.8042 215.217 72.8021 215.217 72.8V28C215.219 24.9088 212.617 22.4021 209.407 22.4ZM203.583 67.2H145.417V33.6H203.583V67.2Z" fill="#FF5E14"/>
</svg>
