<svg height="512" viewBox="0 0 512 512" width="512" xmlns="http://www.w3.org/2000/svg"><g id="Fill_out_line" data-name="Fill out line"><circle cx="144" cy="144" fill="#8acce7" r="120"/><path d="m240 144q0 4.03491-.34009 8a95.11494 95.11494 0 0 1 -16.80981 46.76 96.08585 96.08585 0 0 1 -24.0901 24.09 95.11622 95.11622 0 0 1 -46.76 16.80991q-3.96021.34515-8 .34009-4.03491 0-8-.34009a95.11622 95.11622 0 0 1 -46.76-16.80991 96.08585 96.08585 0 0 1 -24.0901-24.09 95.11494 95.11494 0 0 1 -16.80981-46.76q-.34535-3.96-.34009-8 0-4.03491.34009-8a95.1133 95.1133 0 0 1 16.80981-46.76 96.08435 96.08435 0 0 1 24.0901-24.0901 95.1197 95.1197 0 0 1 46.76-16.8099q3.96021-.345 8-.34 4.03491 0 8 .34a95.1197 95.1197 0 0 1 46.76 16.8099 96.08435 96.08435 0 0 1 24.0901 24.0901 95.1133 95.1133 0 0 1 16.80981 46.76q.34535 3.96.34009 8z" fill="#c4d4e0"/><circle cx="144" cy="144" fill="#2d80b3" r="16"/><path d="m376 288h112v208h-112z" fill="#8ec737"/><path d="m152 320h112v176h-112z" fill="#eebe33" transform="matrix(-1 0 0 -1 416 816)"/><path d="m264 384h112v112h-112z" fill="#e88604" transform="matrix(-1 0 0 -1 640 880)"/><path d="m40 416h112v80h-112z" fill="#e44042"/><path d="m488 280h-112a8.00008 8.00008 0 0 0 -8 8v88h-96v-56a8.00008 8.00008 0 0 0 -8-8h-112a8.00008 8.00008 0 0 0 -8 8v88h-104a8.00008 8.00008 0 0 0 -8 8v80a8.00008 8.00008 0 0 0 8 8h448a8.00008 8.00008 0 0 0 8-8v-208a8.00008 8.00008 0 0 0 -8-8zm-440 144h96v64h-96zm112-8v-88h96v160h-96zm112-24h96v96h-96zm208 96h-96v-192h96z"/><path d="m488 136h-56v16h36.686l-148.686 148.68652-106.34277-106.34326a8.00122 8.00122 0 0 0 -11.31446 0l-184 184 11.31446 11.31348 178.34277-178.34326 106.34277 106.34326a8.00122 8.00122 0 0 0 11.31446 0l154.34277-154.34274v36.686h16v-56a8.00008 8.00008 0 0 0 -8-8z"/><path d="m211.20605 233.604a111.77536 111.77536 0 0 1 -26.91405 14.93213l5.75781 14.92774a127.76964 127.76964 0 0 0 30.76757-17.06787z"/><path d="m109.87207 267.398 4.25586-15.42334a112.00213 112.00213 0 1 1 124.63574-48.24707l13.52735 8.54492a127.99939 127.99939 0 1 0 -142.41895 55.12549z"/><path d="m234.082 196.00586a104.01 104.01 0 1 0 -98.74023 51.63867l1.3164-15.94629a87.53437 87.53437 0 0 1 -29.5498-7.80053l7.81933-13.54371-13.85546-8-7.813 13.53247a87.4287 87.4287 0 0 1 -21.14844-21.14355l13.53564-7.8147-8-13.85644-13.54223 7.81836a87.65513 87.65513 0 0 1 -7.73751-28.89014h15.6333v-16h-15.63257a87.311 87.311 0 0 1 7.74683-28.8844l13.53222 7.81262 8-13.85644-13.51318-7.80152a88.7386 88.7386 0 0 1 21.13721-21.1372l7.80176 13.51294 13.85546-8-7.8125-13.53162a87.308 87.308 0 0 1 28.88477-7.74695v15.63257h16v-15.63257a87.308 87.308 0 0 1 28.88477 7.74695l-7.8125 13.53162 13.85546 8 7.80176-13.51294a88.7386 88.7386 0 0 1 21.13721 21.1372l-13.51318 7.80152 8 13.85644 13.53222-7.81262a87.311 87.311 0 0 1 7.74683 28.8844h-15.63257v16h15.62842a87.81947 87.81947 0 0 1 -11.396 35.99414z"/><path d="m117.65723 181.65674 16.00195-16.00208a23.997 23.997 0 1 0 18.34082-44.27844v-33.37622h-16v33.37622a23.98886 23.98886 0 0 0 -13.65479 32.96448l-16.00244 16.00256zm26.34277-45.65674a8 8 0 1 1 -8 8 8.00917 8.00917 0 0 1 8-8z"/></g></svg>