<svg id="Layer_5" enable-background="new 0 0 64 64" height="512" viewBox="0 0 64 64" width="512" xmlns="http://www.w3.org/2000/svg"><g><g><g><circle cx="18" cy="18" fill="#ffeaa7" r="16"/></g><g><path d="m24 10v8h-2v4 6h-8v-12h-2v-6h2 4 4z" fill="#aab2bd"/></g><g><path d="m6 16h6 2v12h-8z" fill="#cf9e76"/></g><g><path d="m30 18v4h-8v-4h2z" fill="#dfb28b"/></g><g><path d="m22 22h8v6h-8z" fill="#ecc19c"/></g><g><path d="m46.27 21h-12.55c.18-.97.28-1.98.28-3s-.1-2.03-.28-3h12.55c1.31 0 2.51-.67 3.29-1.73 1.25-1.69 3.14-2.89 5.29-3.19 2.85-.4 5.45.71 7.15 2.64v1.28h-2c-2.21 0-4 1.79-4 4s1.79 4 4 4h2v1.28c-1.46 1.67-3.61 2.72-6 2.72-2.64 0-4.97-1.28-6.42-3.25-.79-1.06-1.98-1.75-3.31-1.75z" fill="#e6e9ed"/></g><g><path d="m20 44v4h-11l-2 1h-5v-6h5l2 1z" fill="#e6e9ed"/></g><g><path d="m20 42h10.5c-.33 1.28-.5 2.62-.5 4s.17 2.72.5 4h-10.5v-2-4z" fill="#d3a06c"/></g><g><circle cx="46" cy="46" fill="#e6e9ed" r="16"/></g><g><path d="m42 49c0 2.21 1.79 4 4 4-2.03 0-3.87.75-5.28 2h-7.95c-1.01-1.47-1.77-3.12-2.24-4.89l.02-.01c1.16-2.98 4.06-5.1 7.45-5.1 1.8 0 3.46.6 4.8 1.6-.5.67-.8 1.5-.8 2.4z" fill="#ff826e"/></g><g><path d="m61.45 50.1.02.01c-.47 1.77-1.23 3.42-2.24 4.89h-7.95c-1.41-1.25-3.25-2-5.28-2 2.21 0 4-1.79 4-4 0-.9-.3-1.73-.8-2.4 1.34-1 3-1.6 4.8-1.6 3.39 0 6.29 2.12 7.45 5.1z" fill="#ff826e"/></g><g><path d="m53.91 59.89.01.02c-2.33 1.33-5.04 2.09-7.92 2.09s-5.59-.76-7.92-2.09l.01-.02c.27-1.95 1.24-3.66 2.63-4.89 1.41-1.25 3.25-2 5.28-2s3.87.75 5.28 2c1.39 1.23 2.36 2.94 2.63 4.89z" fill="#b4dd7f"/></g><g><circle cx="54" cy="41" fill="#f0d0b4" r="4"/></g><g><path d="m49.2 46.6c.5.67.8 1.5.8 2.4 0 2.21-1.79 4-4 4s-4-1.79-4-4c0-.9.3-1.73.8-2.4.73-.97 1.89-1.6 3.2-1.6s2.47.63 3.2 1.6z" fill="#f0d0b4"/></g><g><circle cx="38" cy="41" fill="#f0d0b4" r="4"/></g></g><g><path d="m60 15h3v-2.658l-.249-.283c-2.005-2.281-5.014-3.396-8.038-2.969-2.349.328-4.521 1.635-5.957 3.584-.622.843-1.528 1.326-2.487 1.326h-11.764c-1.806-7.447-8.511-13-16.505-13-9.374 0-17 7.626-17 17s7.626 17 17 17c7.994 0 14.699-5.553 16.505-13h11.767c.955 0 1.866.491 2.499 1.348 1.69 2.287 4.393 3.652 7.229 3.652 2.582 0 5.042-1.115 6.751-3.059l.249-.283v-2.658h-3c-1.654 0-3-1.346-3-3s1.346-3 3-3zm-37-4v6h-2v10h-6v-12h-2v-4zm0 12h6v4h-6zm6-2h-6v-2h6zm-16-4v10h-6v-10zm-5.164 12h20.327c-2.676 2.474-6.241 4-10.164 4s-7.487-1.526-10.163-4zm23.164-3.548v-8.452h-6v-8h-2v-2h-2v2h-2v-4h-2v4h-2v-2h-2v2h-2v6h-6v10.452c-1.265-2.199-2-4.739-2-7.452 0-8.271 6.729-15 15-15s15 6.729 15 15c0 2.713-.735 5.253-2 7.452zm29-2.452h.89c-1.303 1.277-3.058 2-4.89 2-2.237 0-4.286-1.036-5.621-2.842-1.013-1.371-2.51-2.158-4.107-2.158h-11.4c.077-.657.128-1.322.128-2s-.051-1.343-.128-2h11.397c1.601 0 3.094-.779 4.097-2.14 1.119-1.519 2.805-2.536 4.623-2.79 2.187-.302 4.354.413 5.901 1.93h-.89c-2.757 0-5 2.243-5 5s2.243 5 5 5z"/><path d="m46 29c-7.634 0-14.107 5.059-16.247 12h-10.753v2h-9.764l-2-1h-6.236v8h6.236l2-1h9.764v2h10.753c2.14 6.941 8.613 12 16.247 12 9.374 0 17-7.626 17-17s-7.626-17-17-17zm-37.236 18-2 1h-3.764v-4h3.764l2 1h10.236v2zm12.236 2v-6h8.281c-.174.976-.281 1.975-.281 3s.107 2.024.281 3zm14-8c0-1.654 1.346-3 3-3s3 1.346 3 3-1.346 3-3 3-3-1.346-3-3zm16 0c0-1.654 1.346-3 3-3s3 1.346 3 3-1.346 3-3 3-3-1.346-3-3zm.621 13c-.68-.547-1.436-.998-2.251-1.331.995-.914 1.63-2.214 1.63-3.669 0-.74-.172-1.436-.461-2.068 1.051-.603 2.228-.932 3.461-.932 2.804 0 5.273 1.643 6.391 4.198-.397 1.358-.983 2.632-1.724 3.802zm-2.621-5c0 1.654-1.346 3-3 3s-3-1.346-3-3 1.346-3 3-3 3 1.346 3 3zm-6.37 3.669c-.815.333-1.571.784-2.251 1.331h-7.046c-.741-1.17-1.328-2.444-1.724-3.802 1.118-2.555 3.587-4.198 6.391-4.198 1.233 0 2.41.329 3.461.932-.289.632-.461 1.328-.461 2.068 0 1.455.635 2.755 1.63 3.669zm-7.779 3.331h3.68c-.47.699-.841 1.471-1.101 2.294-.947-.663-1.808-1.436-2.579-2.294zm4.355 3.356c.747-3.097 3.555-5.356 6.794-5.356s6.047 2.259 6.794 5.356c-2.042 1.043-4.347 1.644-6.794 1.644s-4.752-.601-6.794-1.644zm15.364-1.062c-.26-.823-.631-1.594-1.101-2.294h3.68c-.771.858-1.632 1.631-2.579 2.294zm6.365-11.019c-.953-1.163-2.182-2.045-3.569-2.603.997-.915 1.634-2.216 1.634-3.672 0-2.757-2.243-5-5-5s-5 2.243-5 5c0 1.45.63 2.746 1.619 3.66-.442.179-.869.395-1.281.645-.887-.802-2.051-1.305-3.338-1.305s-2.451.503-3.338 1.305c-.411-.25-.839-.466-1.281-.645.989-.914 1.619-2.21 1.619-3.66 0-2.757-2.243-5-5-5s-5 2.243-5 5c0 1.456.637 2.757 1.633 3.672-1.387.558-2.616 1.44-3.569 2.603-.035-.422-.064-.845-.064-1.275 0-8.271 6.729-15 15-15s15 6.729 15 15c0 .43-.029.853-.065 1.275z"/><path d="m9 19h2v2h-2z"/><path d="m9 23h2v2h-2z"/></g></g></svg>