<?xml version="1.0" standalone="no"?>
<!DOCTYPE svg PUBLIC "-//W3C//DTD SVG 20010904//EN"
 "http://www.w3.org/TR/2001/REC-SVG-20010904/DTD/svg10.dtd">
<svg version="1.0" xmlns="http://www.w3.org/2000/svg"
 width="890.000000pt" height="297.000000pt" viewBox="0 0 890.000000 297.000000"
 preserveAspectRatio="xMidYMid meet">

<g transform="translate(0.000000,297.000000) scale(0.100000,-0.100000)"
fill="#000000" stroke="none">
<path d="M2645 2689 c-101 -15 -235 -57 -340 -108 -267 -130 -511 -380 -626
-640 -62 -140 -81 -227 -82 -366 0 -105 3 -130 27 -199 15 -43 43 -103 62
-133 35 -52 116 -128 162 -152 23 -12 23 -12 15 26 -12 56 -6 175 12 246 32
128 115 315 203 461 23 37 42 69 42 71 0 7 -68 -30 -132 -72 -71 -47 -187
-163 -213 -214 -29 -54 -27 -24 4 59 65 178 183 326 346 434 49 32 162 96 250
140 88 45 194 101 235 126 159 96 380 276 362 294 -13 13 -158 37 -217 36 -27
0 -77 -4 -110 -9z"/>
<path d="M2988 2619 c-21 -60 -108 -230 -147 -287 -73 -107 -199 -210 -319
-262 -60 -26 -67 -37 -108 -160 -37 -114 -40 -274 -5 -361 62 -159 184 -236
360 -227 95 4 163 29 247 90 87 62 218 260 274 415 100 276 70 524 -82 688
-52 56 -166 135 -196 135 -7 0 -18 -14 -24 -31z"/>
<path d="M4159 2054 c-150 -46 -242 -183 -242 -359 0 -131 46 -229 141 -302
60 -45 111 -58 232 -58 92 0 112 4 160 26 73 34 120 76 153 137 89 164 68 354
-53 474 -47 46 -70 60 -125 77 -79 25 -196 27 -266 5z m217 -189 c74 -56 81
-233 13 -310 -68 -77 -190 -61 -233 29 -20 42 -23 165 -6 211 37 97 146 131
226 70z"/>
<path d="M4892 2055 c-72 -20 -105 -39 -137 -77 -43 -51 -58 -95 -53 -160 8
-108 78 -162 253 -198 128 -26 133 -28 145 -50 14 -27 3 -47 -32 -59 -75 -26
-189 -1 -233 51 l-26 30 -79 -52 c-44 -29 -80 -56 -80 -60 0 -15 60 -69 105
-95 109 -65 323 -72 435 -15 110 57 160 189 111 296 -31 69 -89 99 -248 130
-98 19 -133 35 -133 64 0 31 36 43 113 37 56 -4 77 -10 111 -34 l42 -30 64 57
c38 34 60 61 56 68 -13 22 -91 69 -141 86 -71 24 -207 30 -273 11z"/>
<path d="M5389 2046 c-2 -2 -3 -160 -1 -350 l3 -347 107 3 107 3 0 345 0 345
-106 3 c-58 1 -107 1 -110 -2z"/>
<path d="M2281 1967 c-37 -19 -50 -33 -82 -97 -54 -105 -97 -227 -126 -355
-21 -94 -24 -128 -21 -230 4 -105 8 -127 32 -177 15 -32 39 -67 54 -79 24 -19
35 -21 117 -16 84 5 217 37 297 71 33 13 33 13 -27 13 -137 0 -243 98 -286
267 -28 110 12 397 80 575 10 28 16 51 13 50 -4 0 -27 -10 -51 -22z"/>
<path d="M7175 1485 c-50 -49 -15 -135 55 -135 41 0 80 39 80 80 0 41 -39 80
-80 80 -19 0 -40 -9 -55 -25z m113 -27 c26 -54 -30 -114 -81 -87 -28 15 -37
28 -37 57 0 46 18 63 63 60 34 -2 44 -8 55 -30z"/>
<path d="M7200 1429 c0 -33 4 -48 11 -44 6 4 8 13 5 21 -8 20 14 17 31 -3 14
-17 14 -17 9 1 -4 10 -1 25 5 32 16 19 -6 44 -37 44 -22 0 -24 -4 -24 -51z
m50 21 c0 -5 -9 -10 -20 -10 -11 0 -20 5 -20 10 0 6 9 10 20 10 11 0 20 -4 20
-10z"/>
<path d="M5402 1115 l3 -65 -37 0 -38 0 0 -49 0 -50 36 -3 37 -3 2 -125 c1
-80 6 -135 15 -152 20 -43 68 -59 157 -56 l78 3 0 45 c1 59 -3 70 -27 70 -11
0 -28 5 -39 10 -17 10 -19 22 -19 110 l0 99 43 3 c39 3 42 5 41 31 -3 70 -1
67 -46 67 l-43 0 3 65 4 65 -87 0 -87 0 4 -65z"/>
<path d="M4203 1049 c-18 -5 -38 -18 -46 -29 -15 -22 -27 -17 -27 12 0 16 -9
18 -75 18 l-75 0 0 -290 0 -290 80 0 80 0 0 97 c0 92 1 95 18 80 64 -58 178
-54 233 9 45 52 66 148 49 228 -27 132 -122 198 -237 165z m51 -122 c22 -16
36 -78 29 -126 -17 -112 -141 -104 -145 10 -2 70 1 84 22 107 23 25 67 29 94
9z"/>
<path d="M4629 1050 c-76 -13 -112 -41 -129 -99 l-9 -31 80 0 c61 0 79 3 79
14 0 16 21 26 55 26 38 0 55 -11 55 -35 0 -33 -16 -42 -105 -55 -134 -20 -177
-54 -177 -138 0 -81 55 -126 153 -126 39 0 67 7 93 22 45 27 42 27 49 2 5 -18
14 -20 87 -20 63 0 79 3 73 13 -4 6 -10 89 -13 184 -5 166 -6 172 -30 198 -14
15 -36 31 -49 36 -35 14 -158 19 -212 9z m136 -289 c-12 -56 -92 -82 -119 -38
-17 26 3 50 60 69 56 19 69 13 59 -31z"/>
<path d="M5210 1049 c-14 -5 -37 -24 -52 -42 l-27 -32 -1 38 0 37 -75 0 -75 0
0 -220 0 -220 80 0 80 0 0 110 c0 166 27 208 125 197 l40 -4 -5 71 c-5 71 -5
71 -35 73 -16 1 -41 -2 -55 -8z"/>
<path d="M5927 1046 c-21 -8 -46 -21 -56 -30 -24 -22 -31 -20 -28 7 2 21 -2
22 -75 25 l-78 3 0 -221 0 -220 80 0 80 0 0 134 c0 121 2 136 21 160 16 21 28
26 52 24 48 -5 57 -33 57 -186 l0 -133 78 3 77 3 0 170 c0 184 -6 211 -55 247
-34 25 -106 31 -153 14z"/>
<path d="M6336 1048 c-23 -6 -58 -30 -86 -57 -40 -38 -50 -56 -61 -104 -25
-114 23 -217 121 -260 62 -28 171 -27 227 1 39 21 103 83 103 102 0 16 -142
11 -164 -5 -30 -23 -89 -19 -113 8 -12 12 -23 31 -25 42 -3 19 3 20 156 23
l159 3 -6 56 c-8 76 -48 140 -107 170 -53 27 -148 37 -204 21z m143 -124 c12
-15 21 -31 21 -35 0 -5 -36 -9 -80 -9 -87 0 -100 10 -60 50 31 31 93 27 119
-6z"/>
<path d="M6943 1053 c-13 -2 -36 -21 -53 -41 l-30 -37 0 38 0 37 -80 0 -80 0
2 -217 3 -218 80 0 80 0 1 90 c2 157 2 154 34 187 28 28 36 30 80 26 l50 -5 0
67 c0 81 -9 88 -87 73z"/>
</g>
</svg>
