<svg width="308" height="274" viewBox="0 0 308 274" fill="none" xmlns="http://www.w3.org/2000/svg">
<g clip-path="url(#clip0)">
<path d="M154 34.25C150.458 34.25 147.583 31.6927 147.583 28.5417V5.70833C147.583 2.55733 150.458 0 154 0C157.542 0 160.417 2.55733 160.417 5.70833V28.5417C160.417 31.6927 157.542 34.25 154 34.25Z" fill="#FF5E14"/>
<path d="M240.214 66.0112C238.572 66.0112 236.929 65.4518 235.671 64.3443C233.169 62.1181 233.169 58.499 235.671 56.2728L253.818 40.1296C256.32 37.9033 260.388 37.9033 262.891 40.1296C265.393 42.3558 265.393 45.9749 262.891 48.2012L244.744 64.3443C243.5 65.4518 241.857 66.0112 240.214 66.0112Z" fill="#FF5E14"/>
<path d="M301.583 142.708H275.917C272.375 142.708 269.5 140.151 269.5 137C269.5 133.849 272.375 131.292 275.917 131.292H301.583C305.125 131.292 308 133.849 308 137C308 140.151 305.125 142.708 301.583 142.708Z" fill="#FF5E14"/>
<path d="M258.361 235.549C256.718 235.549 255.075 234.989 253.818 233.882L235.671 217.739C233.169 215.512 233.169 211.893 235.671 209.667C238.174 207.441 242.242 207.441 244.744 209.667L262.891 225.81C265.393 228.036 265.393 231.656 262.891 233.882C261.646 234.989 260.003 235.549 258.361 235.549Z" fill="#FF5E14"/>
<path d="M154 274C150.458 274 147.583 271.443 147.583 268.292V245.458C147.583 242.307 150.458 239.75 154 239.75C157.542 239.75 160.417 242.307 160.417 245.458V268.292C160.417 271.443 157.542 274 154 274Z" fill="#FF5E14"/>
<path d="M49.6393 235.549C47.9967 235.549 46.354 234.989 45.0963 233.882C42.5938 231.656 42.5938 228.036 45.0963 225.81L63.2427 209.667C65.7452 207.441 69.8133 207.441 72.3158 209.667C74.8183 211.893 74.8183 215.512 72.3158 217.739L54.1695 233.882C52.9247 234.989 51.282 235.549 49.6393 235.549Z" fill="#FF5E14"/>
<path d="M32.0833 142.708H6.41667C2.87467 142.708 0 140.151 0 137C0 133.849 2.87467 131.292 6.41667 131.292H32.0833C35.6253 131.292 38.5 133.849 38.5 137C38.5 140.151 35.6253 142.708 32.0833 142.708Z" fill="#FF5E14"/>
<path d="M67.7857 66.0112C66.143 66.0112 64.5003 65.4518 63.2427 64.3443L45.1092 48.2012C42.6067 45.9749 42.6067 42.3558 45.1092 40.1296C47.6117 37.9033 51.6798 37.9033 54.1823 40.1296L72.3287 56.2728C74.8312 58.499 74.8312 62.1181 72.3287 64.3443C71.071 65.4518 69.4283 66.0112 67.7857 66.0112Z" fill="#FF5E14"/>
<g filter="url(#filter0_d)">
<path d="M135.687 228.333C134.93 228.333 134.185 228.219 133.441 227.979C130.631 227.043 128.924 224.509 129.322 221.883L140.268 148.417H96.25C93.8245 148.417 91.6043 147.195 90.5135 145.266C89.4227 143.336 89.6537 141.019 91.1167 139.283L168.117 47.95C169.901 45.8265 173.07 45.073 175.778 46.1233C178.499 47.1622 180.077 49.7082 179.59 52.3112L167.988 114.167H211.75C214.111 114.167 216.28 115.32 217.397 117.169C218.513 119.019 218.398 121.256 217.114 123.026L141.051 225.776C139.832 227.409 137.792 228.333 135.687 228.333ZM109.083 137H147.583C149.444 137 151.19 137.719 152.409 138.952C153.628 140.174 154.193 141.829 153.949 143.462L145.722 198.696L199.841 125.583H160.417C158.53 125.583 156.746 124.853 155.514 123.563C154.295 122.284 153.769 120.583 154.09 118.939L162.598 73.5233L109.083 137Z" fill="#FF5E14"/>
</g>
</g>
<defs>
<filter id="filter0_d" x="85.8319" y="45.6533" width="136.33" height="190.68" filterUnits="userSpaceOnUse" color-interpolation-filters="sRGB">
<feFlood flood-opacity="0" result="BackgroundImageFix"/>
<feColorMatrix in="SourceAlpha" type="matrix" values="0 0 0 0 0 0 0 0 0 0 0 0 0 0 0 0 0 0 127 0"/>
<feOffset dy="4"/>
<feGaussianBlur stdDeviation="2"/>
<feColorMatrix type="matrix" values="0 0 0 0 0 0 0 0 0 0 0 0 0 0 0 0 0 0 0.25 0"/>
<feBlend mode="normal" in2="BackgroundImageFix" result="effect1_dropShadow"/>
<feBlend mode="normal" in="SourceGraphic" in2="effect1_dropShadow" result="shape"/>
</filter>
<clipPath id="clip0">
<rect width="308" height="274" fill="white"/>
</clipPath>
</defs>
</svg>
