<svg height="512" viewBox="0 0 128 128" width="512" xmlns="http://www.w3.org/2000/svg"><g><g><path d="m1.75 57.811h124.5v68.436h-124.5z" fill="#5e8569"/><path d="m36.77 67.811h54.46v48.436h-54.46z" fill="#e6e9ed"/><path d="m84.4 48.033h22.6a5 5 0 0 1 5 5v4.778a0 0 0 0 1 0 0h-32.6a0 0 0 0 1 0 0v-4.778a5 5 0 0 1 5-5z" fill="#424242"/><path d="m101.7 48.033h-12v-40.286a6 6 0 0 1 6-6 6 6 0 0 1 6 6z" fill="#fbb540"/><g fill="#5e8569"><path d="m64 85.529a6.5 6.5 0 1 0 6.5 6.5 6.508 6.508 0 0 0 -6.5-6.5zm0 9.5a3 3 0 1 1 3-3 3 3 0 0 1 -3 3z"/><path d="m81.092 90.279h-2.708a14.514 14.514 0 0 0 -12.634-12.633v-2.708a1.75 1.75 0 1 0 -3.5 0v2.708a14.514 14.514 0 0 0 -12.634 12.633h-2.708a1.75 1.75 0 0 0 0 3.5h2.708a14.515 14.515 0 0 0 12.634 12.634v2.708a1.75 1.75 0 0 0 3.5 0v-2.708a14.515 14.515 0 0 0 12.634-12.634h2.708a1.75 1.75 0 0 0 0-3.5zm-15.342 12.6v-1.1a1.75 1.75 0 1 0 -3.5 0v1.1a11.008 11.008 0 0 1 -9.1-9.1h1.1a1.75 1.75 0 1 0 0-3.5h-1.1a11.008 11.008 0 0 1 9.1-9.1v1.1a1.75 1.75 0 0 0 3.5 0v-1.1a11.008 11.008 0 0 1 9.1 9.1h-1.1a1.75 1.75 0 1 0 0 3.5h1.1a11.008 11.008 0 0 1 -9.1 9.098z"/></g><circle cx="108.744" cy="75.318" fill="#85bc94" r="7.506"/><path d="m101.238 91.376h15.012v7.5h-15.012z" fill="#424242"/><path d="m101.238 108.747h15.012v7.5h-15.012z" fill="#424242"/><circle cx="19.256" cy="75.318" fill="#85bc94" r="7.506"/><g fill="#424242"><path d="m11.75 91.376h15.012v7.5h-15.012z" transform="matrix(-1 0 0 -1 38.512 190.252)"/><path d="m11.75 108.747h15.012v7.5h-15.012z" transform="matrix(-1 0 0 -1 38.512 224.994)"/></g></g><g fill="#332319"><path d="m126.25 56.061h-12.5v-.873a1.75 1.75 0 1 0 -3.5 0v.873h-29.1v-3.028a3.254 3.254 0 0 1 3.25-3.25h21.037a1.75 1.75 0 0 0 0-3.5h-1.987v-38.536a7.75 7.75 0 0 0 -15.5 0v38.536h-3.55a6.758 6.758 0 0 0 -6.75 6.75v3.028h-29.306a1.75 1.75 0 0 0 0 3.5h76.156v64.939h-121v-64.939h18.125a1.75 1.75 0 1 0 0-3.5h-19.875a1.751 1.751 0 0 0 -1.75 1.75v68.436a1.751 1.751 0 0 0 1.75 1.753h124.5a1.751 1.751 0 0 0 1.75-1.75v-68.439a1.751 1.751 0 0 0 -1.75-1.75zm-34.8-48.314a4.25 4.25 0 0 1 8.5 0v38.536h-8.5z"/><path d="m33.906 59.561h2.156a1.75 1.75 0 0 0 0-3.5h-2.156a1.75 1.75 0 0 0 0 3.5z"/><path d="m35.02 67.811v48.436a1.751 1.751 0 0 0 1.75 1.753h54.46a1.751 1.751 0 0 0 1.75-1.75v-48.439a1.751 1.751 0 0 0 -1.75-1.75h-54.46a1.751 1.751 0 0 0 -1.75 1.75zm3.5 1.75h50.96v44.939h-50.96z"/><path d="m64 85.529a6.5 6.5 0 1 0 6.5 6.5 6.508 6.508 0 0 0 -6.5-6.5zm0 9.5a3 3 0 1 1 3-3 3 3 0 0 1 -3 3z"/><path d="m81.092 90.279h-2.708a14.514 14.514 0 0 0 -12.634-12.633v-2.708a1.75 1.75 0 1 0 -3.5 0v2.708a14.514 14.514 0 0 0 -12.634 12.633h-2.708a1.75 1.75 0 0 0 0 3.5h2.708a14.515 14.515 0 0 0 12.634 12.634v2.708a1.75 1.75 0 0 0 3.5 0v-2.708a14.515 14.515 0 0 0 12.634-12.634h2.708a1.75 1.75 0 0 0 0-3.5zm-15.342 12.6v-1.1a1.75 1.75 0 1 0 -3.5 0v1.1a11.008 11.008 0 0 1 -9.1-9.1h1.1a1.75 1.75 0 1 0 0-3.5h-1.1a11.008 11.008 0 0 1 9.1-9.1v1.1a1.75 1.75 0 0 0 3.5 0v-1.1a11.008 11.008 0 0 1 9.1 9.1h-1.1a1.75 1.75 0 1 0 0 3.5h1.1a11.008 11.008 0 0 1 -9.1 9.098z"/><path d="m108.744 84.574a9.257 9.257 0 1 0 -9.256-9.257 9.267 9.267 0 0 0 9.256 9.257zm0-15.013a5.757 5.757 0 1 1 -5.756 5.756 5.763 5.763 0 0 1 5.756-5.756z"/><path d="m99.488 98.876a1.75 1.75 0 0 0 1.75 1.75h15.012a1.751 1.751 0 0 0 1.75-1.75v-7.5a1.751 1.751 0 0 0 -1.75-1.75h-15.012a1.75 1.75 0 0 0 -1.75 1.75zm3.5-5.75h11.512v4h-11.512z"/><path d="m99.488 116.247a1.75 1.75 0 0 0 1.75 1.75h15.012a1.751 1.751 0 0 0 1.75-1.75v-7.5a1.751 1.751 0 0 0 -1.75-1.75h-15.012a1.75 1.75 0 0 0 -1.75 1.75zm3.5-5.75h11.512v4h-11.512z"/><path d="m10 75.317a9.256 9.256 0 1 0 9.256-9.256 9.267 9.267 0 0 0 -9.256 9.256zm15.012 0a5.756 5.756 0 1 1 -5.756-5.756 5.763 5.763 0 0 1 5.756 5.756z"/><path d="m28.512 91.376a1.751 1.751 0 0 0 -1.75-1.75h-15.012a1.751 1.751 0 0 0 -1.75 1.75v7.5a1.751 1.751 0 0 0 1.75 1.75h15.012a1.751 1.751 0 0 0 1.75-1.75zm-3.5 5.75h-11.512v-4h11.512z"/><path d="m26.762 107h-15.012a1.751 1.751 0 0 0 -1.75 1.75v7.5a1.751 1.751 0 0 0 1.75 1.75h15.012a1.751 1.751 0 0 0 1.75-1.75v-7.5a1.751 1.751 0 0 0 -1.75-1.75zm-1.75 7.5h-11.512v-4h11.512z"/></g></g></svg>