<?xml version="1.0" encoding="iso-8859-1"?>
<!-- Generator: Adobe Illustrator 19.0.0, SVG Export Plug-In . SVG Version: 6.00 Build 0)  -->
<svg version="1.1" id="Capa_1" xmlns="http://www.w3.org/2000/svg" xmlns:xlink="http://www.w3.org/1999/xlink" x="0px" y="0px"
	 viewBox="0 0 512.001 512.001" style="enable-background:new 0 0 512.001 512.001;" xml:space="preserve">
<path style="fill:#E2724D;" d="M249.941,89.292c-88.583,0-160.649,72.066-160.649,160.649S161.358,410.59,249.941,410.59
	S410.59,338.524,410.59,249.941S338.524,89.292,249.941,89.292z"/>
<path style="fill:#FAD17B;" d="M249.941,121.422c-70.865,0-128.519,57.654-128.519,128.519S179.076,378.46,249.941,378.46
	S378.46,320.806,378.46,249.941S320.806,121.422,249.941,121.422z"/>
<path style="fill:#F9C55A;" d="M271.026,367.416c-70.865,0-128.519-57.654-128.519-128.519c0-45.174,23.431-84.973,58.775-107.898
	c-46.808,19.22-79.86,65.291-79.86,118.943c0,70.865,57.654,128.519,128.519,128.519c25.692,0,49.644-7.583,69.745-20.621
	C304.669,364.006,288.24,367.416,271.026,367.416z"/>
<path style="fill:#FFFFFF;" d="M321.558,230.654c-1.279-2.922-4.167-4.81-7.358-4.81h-46.214l13.893-62.518
	c0.802-3.608-0.962-7.296-4.272-8.938c-3.309-1.642-7.313-0.814-9.701,2.007L179.55,260.817c-2.02,2.388-2.471,5.731-1.155,8.569
	c1.316,2.836,4.16,4.653,7.287,4.653h45.082l-20.573,61.719c-1.081,3.247,0.069,6.93,2.814,8.977
	c3.257,2.428,7.955,1.995,10.707-0.989l96.39-104.422C322.268,236.981,322.839,233.577,321.558,230.654z"/>
<path style="fill:#6EC661;" d="M317.102,33.778C312.574,30.321,272.166,0,247.968,0c-26.575,0-48.195,18.017-48.195,40.162
	s21.619,40.162,48.195,40.162c24.199,0,64.607-30.321,69.134-33.778C321.244,43.382,321.244,36.942,317.102,33.778z"/>
<path style="fill:#469635;" d="M330.07,32.329c-16.274-3.692-57.116-8.231-74.069-8.231c-55.428,0-108.678,20.339-149.942,57.272
	c-3.018,2.701-3.535,7.386-1.166,10.674c2.75,3.817,8.369,4.44,11.879,1.296c38.314-34.293,87.76-53.178,139.229-53.178
	c15.81,0,55.351,4.393,70.514,7.834c4.327,0.982,8.63-1.731,9.611-6.055C337.107,37.613,334.396,33.311,330.07,32.329z"/>
<path style="fill:#6EC661;" d="M33.778,194.898C30.321,199.426,0,239.834,0,264.033c0,26.575,18.017,48.195,40.162,48.195
	s40.162-21.619,40.162-48.195c0-24.199-30.321-64.607-33.778-69.134C43.382,190.756,36.942,190.756,33.778,194.898z"/>
<path style="fill:#469635;" d="M32.329,181.93c-3.692,16.274-8.231,57.116-8.231,74.07c0,55.428,20.339,108.678,57.272,149.942
	c2.701,3.018,7.386,3.535,10.674,1.166c3.817-2.75,4.44-8.369,1.296-11.879c-34.293-38.314-53.178-87.761-53.178-139.229
	c0-15.81,4.393-55.351,7.834-70.514c0.982-4.327-1.731-8.63-6.055-9.611C37.613,174.893,33.311,177.605,32.329,181.93z"/>
<path style="fill:#6EC661;" d="M194.898,478.223c4.528,3.457,44.937,33.779,69.134,33.779c26.575,0,48.195-18.017,48.195-40.162
	s-21.619-40.162-48.195-40.162c-24.199,0-64.607,30.321-69.134,33.779C190.756,468.618,190.756,475.059,194.898,478.223z"/>
<path style="fill:#469635;" d="M181.93,479.671c16.274,3.693,57.116,8.231,74.07,8.231c55.428,0,108.678-20.339,149.942-57.272
	c3.018-2.701,3.535-7.386,1.166-10.674c-2.75-3.817-8.369-4.44-11.879-1.296c-38.314,34.292-87.76,53.177-139.229,53.177
	c-15.81,0-55.351-4.393-70.514-7.834c-4.327-0.982-8.63,1.731-9.611,6.055C174.893,474.387,177.605,478.69,181.93,479.671z"/>
<path style="fill:#6EC661;" d="M478.223,317.102c3.457-4.528,33.779-44.937,33.779-69.134c0-26.575-18.017-48.195-40.162-48.195
	s-40.162,21.619-40.162,48.195c0,24.199,30.321,64.607,33.779,69.134C468.618,321.244,475.059,321.244,478.223,317.102z"/>
<path style="fill:#469635;" d="M479.671,330.07c3.693-16.274,8.231-57.116,8.231-74.07c0-55.428-20.339-108.678-57.272-149.942
	c-2.701-3.018-7.386-3.535-10.674-1.166c-3.817,2.75-4.44,8.369-1.296,11.879c34.292,38.314,53.177,87.76,53.177,139.229
	c0,15.81-4.393,55.351-7.834,70.514c-0.982,4.327,1.731,8.63,6.055,9.611C474.387,337.107,478.69,334.396,479.671,330.07z"/>
<g>
</g>
<g>
</g>
<g>
</g>
<g>
</g>
<g>
</g>
<g>
</g>
<g>
</g>
<g>
</g>
<g>
</g>
<g>
</g>
<g>
</g>
<g>
</g>
<g>
</g>
<g>
</g>
<g>
</g>
</svg>
