<svg width="284" height="234" viewBox="0 0 284 234" fill="none" xmlns="http://www.w3.org/2000/svg">
<g clip-path="url(#clip0)" filter="url(#filter0_d)">
<path d="M146.843 120.139L146.949 120.201L147.057 120.258L253.093 176.689L253.094 176.689C255.559 178.001 256.268 179.628 256.266 180.735L256.217 214.5C256.215 216.167 253.881 219.751 248.061 219.742C246.078 219.74 244.337 219.245 243.301 218.639L243.197 218.578L243.09 218.521L144.83 166.267L142.023 164.774L139.211 166.258L40.7971 218.226L40.6901 218.283L40.5854 218.343C39.5473 218.946 37.8047 219.436 35.8247 219.433C30.0016 219.425 27.679 215.833 27.6815 214.167L27.7307 180.401C27.7323 179.295 28.4463 177.669 30.915 176.365L30.9158 176.365L137.116 120.243L137.224 120.186L137.33 120.125C138.363 119.524 140.103 119.035 142.09 119.038C144.073 119.04 145.811 119.534 146.843 120.139Z" stroke="#FF5E14" stroke-width="12"/>
<path d="M147.007 7.30954L147.113 7.37137L147.221 7.42885L253.257 63.8576L253.258 63.858C255.722 65.169 256.432 66.7984 256.43 67.9034L256.381 101.669C256.379 103.339 254.044 106.922 248.225 106.913C246.242 106.91 244.503 106.416 243.469 105.81L243.363 105.748L243.254 105.69L144.994 53.4354L142.187 51.9425L139.375 53.4272L40.9611 105.395L40.8521 105.452L40.7456 105.514C39.7095 106.117 37.9688 106.607 35.9887 106.604C30.1664 106.595 27.843 103.005 27.8455 101.335L27.8947 67.5702C27.8963 66.4652 28.611 64.8378 31.079 63.5341L31.0797 63.5337L137.28 7.41436L137.388 7.35719L137.494 7.29567C138.53 6.69311 140.27 6.20338 142.254 6.20627C144.234 6.20916 145.973 6.70375 147.007 7.30954Z" stroke="#FF5E14" stroke-width="12"/>
</g>
<defs>
<filter id="filter0_d" x="-4" y="1.52588e-05" width="291.31" height="233.514" filterUnits="userSpaceOnUse" color-interpolation-filters="sRGB">
<feFlood flood-opacity="0" result="BackgroundImageFix"/>
<feColorMatrix in="SourceAlpha" type="matrix" values="0 0 0 0 0 0 0 0 0 0 0 0 0 0 0 0 0 0 127 0"/>
<feOffset dy="4"/>
<feGaussianBlur stdDeviation="2"/>
<feColorMatrix type="matrix" values="0 0 0 0 0 0 0 0 0 0 0 0 0 0 0 0 0 0 0.25 0"/>
<feBlend mode="normal" in2="BackgroundImageFix" result="effect1_dropShadow"/>
<feBlend mode="normal" in="SourceGraphic" in2="effect1_dropShadow" result="shape"/>
</filter>
<clipPath id="clip0">
<rect width="225.102" height="282.982" fill="white" transform="translate(0 225.102) rotate(-89.9165)"/>
</clipPath>
</defs>
</svg>
