<svg width="512" height="512" viewBox="0 0 512 512" fill="none" xmlns="http://www.w3.org/2000/svg">
<path d="M151 181H91C82.7148 181 76 187.715 76 196V436C76 444.285 82.7148 451 91 451H151C159.285 451 166 444.285 166 436V196C166 187.715 159.285 181 151 181ZM136 421H106V211H136V421Z" fill="white"/>
<path d="M121 61C96.1875 61 76 81.1875 76 106C76 130.812 96.1875 151 121 151C145.812 151 166 130.812 166 106C166 81.1875 145.812 61 121 61ZM121 121C112.73 121 106 114.27 106 106C106 97.7305 112.73 91 121 91C129.27 91 136 97.7305 136 106C136 114.27 129.27 121 121 121Z" fill="white"/>
<path d="M355.641 181.926C331.133 177.949 306.047 182.613 285.902 194.266C285.039 186.797 278.695 181 271 181H211C202.715 181 196 187.715 196 196V436C196 444.285 202.715 451 211 451H271C279.285 451 286 444.285 286 436V301C286 284.457 299.457 271 316 271C332.543 271 346 284.457 346 301V436C346 444.285 352.715 451 361 451H421C429.285 451 436 444.285 436 436V274.539C436 229.742 404.34 189.828 355.641 181.926ZM406 421H376V301C376 267.914 349.086 241 316 241C282.914 241 256 267.914 256 301V421H226V211H256V226C256 232.066 259.656 237.535 265.262 239.859C270.863 242.18 277.316 240.895 281.605 236.605L288.602 229.609C303.328 214.887 327.758 207.793 350.836 211.539C386.145 217.27 406 245.484 406 274.539V421Z" fill="white"/>
<path d="M436 0H76C34.5156 0 0 34.543 0 76V436C0 477.484 34.543 512 76 512H436C477.484 512 512 477.457 512 436V76C512 34.5156 477.457 0 436 0ZM482 436C482 460.934 460.934 482 436 482H76C51.0664 482 30 460.934 30 436V76C30 51.0664 51.0664 30 76 30H436C460.934 30 482 51.0664 482 76V436Z" fill="white"/>
</svg>
