<?xml version="1.0" encoding="UTF-8" standalone="no"?>
<svg
   xmlns:dc="http://purl.org/dc/elements/1.1/"
   xmlns:cc="http://creativecommons.org/ns#"
   xmlns:rdf="http://www.w3.org/1999/02/22-rdf-syntax-ns#"
   xmlns:svg="http://www.w3.org/2000/svg"
   xmlns="http://www.w3.org/2000/svg"
   xmlns:sodipodi="http://sodipodi.sourceforge.net/DTD/sodipodi-0.dtd"
   xmlns:inkscape="http://www.inkscape.org/namespaces/inkscape"
   version="1.1"
   width="2080.011"
   height="490.71579"
   id="svg46"
   sodipodi:docname="min_logo.svg"
   inkscape:version="1.0 (4035a4fb49, 2020-05-01)">
  <metadata
     id="metadata52">
    <rdf:RDF>
      <cc:Work
         rdf:about="">
        <dc:format>image/svg+xml</dc:format>
        <dc:type
           rdf:resource="http://purl.org/dc/dcmitype/StillImage" />
        <dc:title></dc:title>
      </cc:Work>
    </rdf:RDF>
  </metadata>
  <defs
     id="defs50" />
  <sodipodi:namedview
     inkscape:document-rotation="0"
     pagecolor="#828082"
     bordercolor="#666666"
     borderopacity="1"
     objecttolerance="10"
     gridtolerance="10"
     guidetolerance="10"
     inkscape:pageopacity="0"
     inkscape:pageshadow="2"
     inkscape:window-width="1780"
     inkscape:window-height="879"
     id="namedview48"
     showgrid="false"
     fit-margin-top="0"
     fit-margin-left="0"
     fit-margin-right="0"
     fit-margin-bottom="0"
     inkscape:zoom="0.32996713"
     inkscape:cx="1198.1561"
     inkscape:cy="897.76333"
     inkscape:window-x="0"
     inkscape:window-y="437"
     inkscape:window-maximized="0"
     inkscape:current-layer="g44" />
  <g
     transform="matrix(8.9552239,0,0,8.9552239,90.619379,82.509278)"
     id="g44">
    <defs
       id="SvgjsDefs1097">
      <linearGradient
         id="SvgjsLinearGradient1104">
        <stop
           id="SvgjsStop1105"
           stop-color="#2d388a"
           offset="0" />
        <stop
           id="SvgjsStop1106"
           stop-color="#00aeef"
           offset="1" />
      </linearGradient>
    </defs>
    <g
       id="SvgjsG1098"
       featureKey="root"
       fill="#ffffff" />
    <g
       id="SvgjsG1099"
       featureKey="container1"
       fill="#ffffff"
       transform="matrix(0.2681507,0,0,0.2681507,-10.119164,-9.213536)">
      <defs
         id="defs7" />
      <g
         id="g15">
        <path
           d="m 102.174,199.588 c 53.8,0 97.413,-43.613 97.413,-97.413 0,-53.8 -43.613,-97.413 -97.413,-97.413 -53.8,0 -97.413,43.613 -97.413,97.413 0,53.8 43.614,97.413 97.413,97.413 z m 0,-189.826 c 50.957,0 92.413,41.457 92.413,92.413 0,50.956 -41.456,92.413 -92.413,92.413 -50.957,0 -92.413,-41.457 -92.413,-92.413 0,-50.956 41.457,-92.413 92.413,-92.413 z"
           id="path9" />
        <path
           d="m 102.174,191.585 c 49.38,0 89.41,-40.03 89.41,-89.41 0,-49.38 -40.03,-89.41 -89.41,-89.41 -49.38,0 -89.41,40.03 -89.41,89.41 0,49.38 40.03,89.41 89.41,89.41 z m 0,-176.82 c 48.198,0 87.41,39.212 87.41,87.41 0,48.198 -39.212,87.41 -87.41,87.41 -48.198,0 -87.41,-39.212 -87.41,-87.41 0,-48.198 39.212,-87.41 87.41,-87.41 z"
           id="path11" />
        <path
           d="m 102.174,204.35 c 56.339,0 102.174,-45.835 102.174,-102.175 C 204.348,45.835 158.513,0 102.174,0 45.835,0 0,45.835 0,102.175 0,158.515 45.835,204.35 102.174,204.35 Z m 0,-202.35 c 55.236,0 100.174,44.938 100.174,100.175 0,55.237 -44.937,100.175 -100.174,100.175 C 46.938,202.35 2,157.411 2,102.175 2,46.939 46.938,2 102.174,2 Z"
           id="path13" />
      </g>
    </g>
    <g
       id="SvgjsG1100"
       featureKey="symbol1"
       fill="#ffffff"
       transform="matrix(0.35507235,0,0,0.35507235,-0.27532423,0.45970903)">
      <g
         id="SvgjsG1101">
        <defs
           id="defs18" />
        <title
           id="title20" />
        <path
           d="M 85.32,62.07 A 68.22,68.22 0 0 1 79,66.23 c -0.54,0.31 -1.08,0.62 -1.63,0.92 l -0.2,0.11 h -0.11 v 0 0 h -0.07 l -0.1,0.05 c -0.14,0.08 -0.32,0.17 -0.52,0.26 a 14,14 0 0 1 -1.32,0.52 c -0.48,0.17 -1,0.31 -1.48,0.45 a 30.59,30.59 0 0 1 -3.14,0.65 c -1.08,0.18 -2.19,0.31 -3.33,0.41 -2.27,0.2 -4.65,0.28 -7.16,0.32 -2.51,0.04 -5.15,0.06 -7.92,0.14 -1.38,0 -2.8,0.11 -4.25,0.21 l -2.19,0.18 c -0.74,0.07 -1.48,0.16 -2.25,0.27 a 61,61 0 0 0 -9,2 90.87,90.87 0 0 0 -8.63,3 c -1.39,0.57 -2.76,1.16 -4.12,1.77 a 39.89,39.89 0 0 0 9.58,7.16 c 2,-1 4,-2 6,-2.83 a 48.67,48.67 0 0 1 7.14,-2.39 c 0.57,-0.14 1.17,-0.28 1.77,-0.4 0.6,-0.12 1.2,-0.23 1.8,-0.33 1.2,-0.21 2.4,-0.38 3.59,-0.53 2.38,-0.31 4.73,-0.53 7,-0.79 2.27,-0.26 4.53,-0.52 6.73,-0.9 1.09,-0.2 2.18,-0.42 3.26,-0.69 a 29.78,29.78 0 0 0 3.27,-1 c 0.56,-0.2 1.12,-0.43 1.7,-0.69 l 0.89,-0.44 c 0.3,-0.15 0.62,-0.33 1,-0.53 a 11.4,11.4 0 0 0 1.08,-0.7 c 0.1,-0.06 0.2,-0.15 0.31,-0.22 l 0.3,-0.11 0.09,-0.07 0.07,-0.06 0.1,-0.09 0.19,-0.18 1.55,-1.48 q 3.14,-3 6.22,-6.08 c 1,-1.07 2.09,-2.14 3.13,-3.23 0.16,-0.52 0.3,-1 0.43,-1.57 q -1.71,1.44 -3.46,2.73 z"
           style="fill-rule:evenodd"
           id="path22" />
        <path
           d="m 80.24,49.11 -1.68,-0.06 h -0.42 -0.21 -0.16 c -0.19,0 -0.42,0 -0.65,0 -1,0 -2,-0.13 -3.14,-0.26 -2.21,-0.26 -4.54,-0.66 -6.94,-1.12 -2.4,-0.46 -4.87,-1 -7.43,-1.54 -2.56,-0.54 -5.19,-1.11 -7.9,-1.64 -1.36,-0.26 -2.73,-0.52 -4.13,-0.76 L 45.46,43.38 44.4,43.21 43.3,43 c -2.94,-0.4 -5.92,-0.63 -8.95,-0.74 -3.03,-0.11 -6.09,-0.09 -9.19,0 -3.1,0.09 -6.25,0.33 -9.43,0.61 -1.75,0.15 -3.51,0.33 -5.27,0.51 a 40.83,40.83 0 0 0 -0.46,6.1 41.64,41.64 0 0 0 0.31,5 c 2.25,-0.38 4.44,-0.75 6.61,-1.08 3,-0.48 6,-0.9 8.93,-1.24 2.93,-0.34 5.77,-0.59 8.56,-0.72 2.79,-0.13 5.52,-0.19 8.15,-0.08 h 1 1 l 2,0.12 3.92,0.31 c 2.59,0.23 5.13,0.49 7.62,0.73 2.49,0.24 4.93,0.48 7.33,0.65 2.4,0.17 4.74,0.28 7.12,0.25 1.2,0 2.39,-0.06 3.72,-0.21 0.34,0 0.68,-0.08 1.06,-0.15 h 0.14 0.07 0.06 l 0.21,-0.06 0.43,-0.11 1.7,-0.46 c 2.26,-0.6 4.46,-1.21 6.61,-1.8 l 3.47,-1 v -0.24 c 0,-0.24 0,-0.48 0,-0.72 -1.06,0.11 -2.15,0.19 -3.24,0.24 -2.15,0.24 -4.31,0.26 -6.54,0.2 z"
           style="fill-rule:evenodd"
           id="path24" />
        <path
           d="m 79.08,74.93 c -0.5,0.46 -1,0.91 -1.52,1.35 l -0.19,0.17 -0.08,0.07 v 0 l -0.07,0.06 -0.09,0.08 -0.46,0.37 -0.58,0.4 -0.63,0.4 c -0.44,0.26 -0.9,0.51 -1.37,0.75 -0.94,0.47 -1.94,0.89 -3,1.28 -1.06,0.39 -2.08,0.73 -3.17,1 -2.17,0.64 -4.46,1.18 -6.86,1.71 -2.4,0.53 -4.92,1 -7.51,1.58 -1.29,0.28 -2.61,0.56 -3.93,0.87 -0.67,0.15 -1.34,0.3 -2,0.47 l -1,0.24 -1,0.27 c -2.11,0.56 -4.21,1.22 -6.28,2 A 40.05,40.05 0 0 0 84.94,69 Q 82,72.23 79.08,74.93 Z"
           style="fill-rule:evenodd"
           id="path26" />
        <path
           d="m 80.29,26.58 0.77,0.66 0.78,0.61 1.56,1.24 c 0.63,0.5 1.25,1 1.87,1.55 A 40.08,40.08 0 0 0 58.79,10.48 218.06,218.06 0 0 1 77.17,24 Z"
           style="fill-rule:evenodd"
           id="path28" />
        <path
           d="m 82.65,33.53 -1.57,-1.14 c -0.26,-0.18 -0.52,-0.38 -0.79,-0.56 l -0.8,-0.51 c -1.07,-0.68 -2.15,-1.36 -3.24,-2 A 266.39,266.39 0 0 0 48.52,14.44 Q 44.36,12.52 40.11,10.75 A 39.84,39.84 0 0 0 27,16.82 q 10.06,2.58 19.5,5.65 a 301,301 0 0 1 29,11.08 c 1.12,0.5 2.23,1 3.33,1.51 l 0.83,0.38 0.82,0.32 c 0.56,0.21 1.1,0.43 1.65,0.66 q 3.27,1.32 6.39,2.84 l 0.19,0.1 c -0.16,-0.63 -0.34,-1.24 -0.53,-1.85 q -2.74,-1.95 -5.53,-3.98 z"
           style="fill-rule:evenodd"
           id="path30" />
        <path
           d="m 87.76,43.12 c -2.08,-0.66 -4.21,-1.39 -6.38,-2.17 l -1.64,-0.59 -0.82,-0.3 -0.81,-0.24 -3.37,-1 c -4.56,-1.37 -9.33,-2.81 -14.28,-4.27 -2.48,-0.72 -5,-1.46 -7.58,-2.19 L 49,31.26 47,30.72 46,30.45 45,30.19 C 43.63,29.87 42.28,29.56 40.91,29.26 L 36.78,28.37 Q 32.63,27.5 28.33,26.68 c -3.21,-0.61 -6.47,-1.21 -9.78,-1.77 a 39.76,39.76 0 0 0 -5.79,10.22 q 7.17,0.66 14,1.38 c 3,0.31 5.86,0.63 8.72,1 l 4.24,0.5 c 1.39,0.16 2.78,0.33 4.12,0.51 l 1,0.13 1,0.15 2,0.32 4,0.65 7.6,1.23 c 5.07,0.83 9.93,1.62 14.6,2.32 l 3.48,0.5 0.88,0.12 c 0.28,0 0.57,0 0.85,0.05 l 1.69,0.1 q 3.36,0.21 6.56,0.52 l 2.23,0.23 -0.15,-1.15 C 89,43.51 88.37,43.32 87.76,43.12 Z"
           style="fill-rule:evenodd"
           id="path32" />
        <path
           d="m 85.94,55.23 a 63.91,63.91 0 0 1 -6.49,2.12 l -1.68,0.43 -0.42,0.1 h -0.11 v 0 h -0.06 -0.06 l -0.58,0.15 c -0.44,0.09 -0.92,0.17 -1.43,0.24 -0.51,0.07 -1,0.12 -1.56,0.16 -1.08,0.09 -2.19,0.12 -3.32,0.13 -1.13,0.01 -2.31,0 -3.48,-0.08 -2.38,-0.11 -4.85,-0.31 -7.41,-0.54 -2.56,-0.23 -5.23,-0.5 -8,-0.72 -1.39,-0.12 -2.79,-0.22 -4.22,-0.31 -0.71,0 -1.43,-0.09 -2.16,-0.12 h -1.09 -1.13 a 75.12,75.12 0 0 0 -9.21,0.4 c -3.09,0.32 -6.18,0.82 -9.28,1.44 C 21.15,59.25 18,60 15,60.82 l -3.08,0.85 a 40.21,40.21 0 0 0 4.88,10.11 l 1.76,-0.65 c 2.75,-1 5.48,-1.9 8.19,-2.7 2.71,-0.8 5.42,-1.47 8.08,-2 a 66.5,66.5 0 0 1 7.81,-1.08 l 0.95,-0.06 h 1 c 0.65,0 1.3,-0.06 1.95,-0.09 1.29,0 2.57,-0.08 3.84,-0.1 2.54,0 5,0 7.45,-0.08 2.45,-0.08 4.79,-0.08 7.12,-0.22 1.17,-0.07 2.32,-0.16 3.46,-0.29 1.14,-0.13 2.3,-0.3 3.47,-0.52 0.59,-0.12 1.18,-0.25 1.79,-0.4 0.61,-0.15 1.23,-0.35 1.92,-0.59 0.34,-0.12 0.7,-0.26 1.09,-0.43 l 0.15,-0.07 0.16,-0.07 0.15,-0.07 0.11,-0.06 0.42,-0.24 1.66,-1 c 2.21,-1.3 4.38,-2.61 6.5,-3.95 q 2,-1.24 3.91,-2.51 l 0.12,-1 c -1.33,0.57 -2.61,1.12 -3.92,1.63 z"
           style="fill-rule:evenodd"
           id="path34" />
      </g>
    </g>
    <g
       id="SvgjsG1102"
       featureKey="text1"
       fill="#ffffff"
       transform="matrix(1.2373462,0,0,1.2373462,60.600775,-2.6907505)">
      <path
         d="m 8.12,9.72 c 3.0266,0 4.54,1.1733 4.54,3.52 0,1.3467 -0.64666,2.3466 -1.94,3 0.88,0.25334 1.5367,0.69668 1.97,1.33 0.4333,0.63332 0.65,1.3967 0.65,2.29 0,1.28 -0.46334,2.29 -1.39,3.03 C 11.02334,23.63 9.8066,24 8.3,24 H 1.38 V 9.72 Z m -0.4,5.78 c 1.2667,0 1.9,-0.56666 1.9,-1.7 0,-1.0933 -0.70666,-1.64 -2.12,-1.64 H 4.52 v 3.34 z m 0.18,6.06 c 1.5333,0 2.3,-0.62666 2.3,-1.88 0,-1.36 -0.74666,-2.04 -2.24,-2.04 H 4.52 v 3.92 z M 18.6,9.72 v 5.92 L 24.18,9.72 H 28.1 L 22.52,15.36 28.64,24 H 24.7 L 20.4,17.58 18.6,19.4 V 24 H 15.46 V 9.72 Z M 36.3,9.38 c 2.1066,0 3.8034,0.7 5.09,2.1 1.2866,1.4 1.93,3.2134 1.93,5.44 0,2.1734 -0.64666,3.9534 -1.94,5.34 -1.29334,1.3866 -2.9866,2.08 -5.08,2.08 -2.1066,0 -3.8034,-0.69334 -5.09,-2.08 -1.2866,-1.38666 -1.93,-3.1666 -1.93,-5.34 0,-2.2134 0.64666,-4.0234 1.94,-5.43 1.29334,-1.4066 2.9866,-2.11 5.08,-2.11 z m -3.88,7.54 c 0,1.44 0.33998,2.5966 1.02,3.47 0.68002,0.8734 1.6333,1.31 2.86,1.31 1.2,0 2.1466,-0.43 2.84,-1.29 0.6934,-0.86 1.04,-2.0234 1.04,-3.49 0,-1.5333 -0.34334,-2.7334 -1.03,-3.6 -0.68666,-0.8666 -1.6433,-1.3 -2.87,-1.3 -1.2,0 -2.1434,0.43334 -2.83,1.3 -0.6866,0.86666 -1.03,2.0666 -1.03,3.6 z M 55.94,9.38 c 1.7467,0 3.1366,0.40002 4.17,1.2 1.0334,0.79998 1.55,1.9333 1.55,3.4 H 58.62 C 58.58,13.26 58.33666,12.72 57.89,12.36 57.44334,12 56.7533,11.82 55.82,11.82 c -0.65334,0 -1.18,0.14334 -1.58,0.43 -0.4,0.28666 -0.6,0.68332 -0.6,1.19 0,0.41334 0.12334,0.71334 0.37,0.9 0.24666,0.18666 0.59666,0.35332 1.05,0.49998 0.45334,0.14666 1.2467,0.36 2.38,0.64 1.1867,0.29334 2.1,0.61334 2.74,0.96 0.64,0.34666 1.1267,0.79 1.46,1.33 0.3333,0.54 0.5,1.2033 0.5,1.99 0,0.90666 -0.24,1.7133 -0.72,2.42 -0.48,0.7067 -1.18,1.2433 -2.1,1.61 -0.92,0.3667 -1.96,0.55 -3.12,0.55 -1.7733,0 -3.23,-0.44334 -4.37,-1.33 -1.14,-0.88666 -1.71,-2.1034 -1.71,-3.65 v -0.1 h 3.04 c 0,0.84 0.28666,1.49 0.86,1.95 0.57334,0.46 1.3333,0.69 2.28,0.69 0.84,0 1.5167,-0.15 2.03,-0.45 0.5133,-0.3 0.77,-0.74334 0.77,-1.33 0,-0.38666 -0.14,-0.71332 -0.42,-0.97998 -0.28,-0.26666 -0.65334,-0.48332 -1.12,-0.64998 -0.46666,-0.16666 -1.2533,-0.37666 -2.36,-0.63 -1.28,-0.32 -2.2134,-0.66 -2.8,-1.02 -0.5866,-0.36 -1.0333,-0.79666 -1.34,-1.31 -0.3067,-0.51334 -0.46,-1.13 -0.46,-1.85 0,-0.89334 0.25666,-1.6733 0.77,-2.34 0.51334,-0.6667 1.1833,-1.16 2.01,-1.48 0.8267,-0.32 1.68,-0.48 2.56,-0.48 z m 12.54,4 c 0.97334,0 1.84,0.22664 2.6,0.67998 0.76,0.45334 1.3567,1.11 1.79,1.97 0.4333,0.86 0.65,1.85 0.65,2.97 0,0.10666 -0.0067,0.28 -0.02,0.52 h -7.46 c 0.02666,0.82666 0.24332,1.47 0.64998,1.93 0.40666,0.46 1.03,0.69 1.87,0.69 0.52,0 0.99666,-0.13 1.43,-0.39 0.43334,-0.26 0.71,-0.57666 0.83,-0.95 h 2.5 c -0.73334,2.32 -2.3466,3.48 -4.84,3.48 -0.94666,-0.01334 -1.8233,-0.22 -2.63,-0.62 -0.8067,-0.4 -1.45,-1.0233 -1.93,-1.87 -0.48,-0.8467 -0.72,-1.83 -0.72,-2.95 0,-1.0533 0.24334,-2.0134 0.73,-2.88 0.48666,-0.8666 1.1333,-1.5133 1.94,-1.94 0.8067,-0.4267 1.6767,-0.64 2.61,-0.64 z m 2.18,4.34 c -0.13334,-0.77334 -0.38,-1.3333 -0.74,-1.68 -0.36,-0.3467 -0.87334,-0.52 -1.54,-0.52 -0.69334,0 -1.24,0.19666 -1.64,0.59 -0.4,0.39334 -0.63334,0.93 -0.7,1.61 z m 10.56,-4.34 c 0.24,0 0.44668,0.03334 0.62002,0.1 v 2.64 c -0.30666,-0.06666 -0.64666,-0.1 -1.02,-0.1 -1.8667,0 -2.8,1.1067 -2.8,3.32 V 24 h -2.84 V 13.66 h 2.7 v 1.92 h 0.04 c 0.28,-0.66666 0.72334,-1.2 1.33,-1.6 0.60666,-0.4 1.2633,-0.6 1.97,-0.6 z m 3.74,0.28 2.18,7.06 h 0.04 l 2.18,-7.06 h 2.82 L 88.68,24 H 85.52 L 81.98,13.66 Z M 96.28,9.72 v 2.34 H 93.44 V 9.72 Z m 0,3.94 V 24 H 93.44 V 13.66 Z m 7.2,-0.28 c 1.4,0 2.54,0.35664 3.42,1.07 0.88,0.71336 1.36,1.6633 1.44,2.85 h -2.78 c -0.18666,-1.1867 -0.88666,-1.78 -2.1,-1.78 -0.74666,0 -1.3367,0.30666 -1.77,0.92 -0.4333,0.61334 -0.65,1.4267 -0.65,2.44 0,0.97334 0.20666,1.76 0.62,2.36 0.41334,0.6 0.99334,0.9 1.74,0.9 1.2933,0 2.0466,-0.7 2.26,-2.1 h 2.74 c -0.18666,1.3733 -0.71666,2.4234 -1.59,3.15 -0.87334,0.7266 -2.0034,1.09 -3.39,1.09 -1.5333,0 -2.7866,-0.49 -3.76,-1.47 -0.9734,-0.98 -1.46,-2.2566 -1.46,-3.83 0,-1.7067 0.48,-3.0666 1.44,-4.08 0.96,-1.0134 2.24,-1.52 3.84,-1.52 z m 11.3,0 c 0.97334,0 1.84,0.22664 2.6,0.67998 0.76,0.45334 1.3567,1.11 1.79,1.97 0.4333,0.86 0.65,1.85 0.65,2.97 0,0.10666 -0.007,0.28 -0.02,0.52 h -7.46 c 0.0267,0.82666 0.24332,1.47 0.64998,1.93 0.40666,0.46 1.03,0.69 1.87,0.69 0.52,0 0.99666,-0.13 1.43,-0.39 0.43334,-0.26 0.71,-0.57666 0.83,-0.95 h 2.5 c -0.73334,2.32 -2.3466,3.48 -4.84,3.48 -0.94666,-0.01334 -1.8233,-0.22 -2.63,-0.62 -0.8067,-0.4 -1.45,-1.0233 -1.93,-1.87 -0.48,-0.8467 -0.72,-1.83 -0.72,-2.95 0,-1.0533 0.24334,-2.0134 0.73,-2.88 0.48666,-0.8666 1.1333,-1.5133 1.94,-1.94 0.8067,-0.4267 1.6767,-0.64 2.61,-0.64 z m 2.18,4.34 c -0.13334,-0.77334 -0.38,-1.3333 -0.74,-1.68 -0.36,-0.3467 -0.87334,-0.52 -1.54,-0.52 -0.69334,0 -1.24,0.19666 -1.64,0.59 -0.4,0.39334 -0.63334,0.93 -0.7,1.61 z m 8.76,-4.34 c 1.3867,0 2.47,0.28002 3.25,0.84002 0.78,0.56 1.2167,1.38 1.31,2.46 h -2.7 c -0.04,-0.49334 -0.22,-0.85 -0.54,-1.07 -0.32,-0.22 -0.78666,-0.33 -1.4,-0.33 -0.53334,0 -0.93,0.08 -1.19,0.24 -0.26,0.16 -0.39,0.4 -0.39,0.72 0,0.24 0.0867,0.44 0.26,0.6 0.17334,0.16 0.43668,0.3 0.79002,0.42 0.35334,0.12 0.74334,0.22 1.17,0.3 1.2933,0.25334 2.2066,0.51334 2.74,0.78 0.5334,0.26666 0.92334,0.58666 1.17,0.96 0.24666,0.37334 0.37,0.83334 0.37,1.38 0,1.16 -0.42334,2.05 -1.27,2.67 -0.84666,0.62 -1.9967,0.93 -3.45,0.93 -1.52,0 -2.7034,-0.32666 -3.55,-0.98 -0.8466,-0.65334 -1.2833,-1.54 -1.31,-2.66 h 2.7 c 0,0.53334 0.20666,0.95668 0.62,1.27 0.41334,0.31332 0.93334,0.47 1.56,0.47 0.53334,0 0.97668,-0.11666 1.33,-0.35 0.35332,-0.23334 0.53,-0.55668 0.53,-0.97002 0,-0.26666 -0.11,-0.48666 -0.33,-0.66 -0.22,-0.17334 -0.53,-0.32668 -0.93,-0.46002 -0.4,-0.13334 -1.02,-0.28668 -1.86,-0.46002 -0.66666,-0.13334 -1.26,-0.31334 -1.78,-0.54 -0.52,-0.22666 -0.91666,-0.52332 -1.19,-0.88998 -0.27334,-0.36666 -0.41,-0.81666 -0.41,-1.35 0,-0.68 0.16334,-1.2733 0.49,-1.78 0.32666,-0.5067 0.82666,-0.89 1.5,-1.15 0.67334,-0.26 1.51,-0.39 2.51,-0.39 z"
         id="path38" />
    </g>
  </g>
</svg>
